<svg width="32" height="32" viewBox="0 0 32 32" fill="none" xmlns="http://www.w3.org/2000/svg">
<rect width="32" height="32" rx="5" fill="white"/>
<g clip-path="url(#clip0_990_1708)">
<path d="M20.6667 8.6665H11.3333C10.4496 8.66756 9.60237 9.01909 8.97748 9.64398C8.35259 10.2689 8.00106 11.1161 8 11.9998V19.9998C8.00106 20.8836 8.35259 21.7308 8.97748 22.3557C9.60237 22.9806 10.4496 23.3321 11.3333 23.3332H20.6667C21.5504 23.3321 22.3976 22.9806 23.0225 22.3557C23.6474 21.7308 23.9989 20.8836 24 19.9998V11.9998C23.9989 11.1161 23.6474 10.2689 23.0225 9.64398C22.3976 9.01909 21.5504 8.66756 20.6667 8.6665V8.6665ZM11.3333 9.99984H20.6667C21.0659 10.0006 21.4557 10.1208 21.786 10.345C22.1163 10.5692 22.3719 10.8871 22.52 11.2578L17.4147 16.3638C17.039 16.738 16.5303 16.9481 16 16.9481C15.4697 16.9481 14.961 16.738 14.5853 16.3638L9.48 11.2578C9.6281 10.8871 9.88374 10.5692 10.214 10.345C10.5443 10.1208 10.9341 10.0006 11.3333 9.99984V9.99984ZM20.6667 21.9998H11.3333C10.8029 21.9998 10.2942 21.7891 9.91912 21.4141C9.54405 21.039 9.33333 20.5303 9.33333 19.9998V12.9998L13.6427 17.3065C14.2684 17.9307 15.1162 18.2812 16 18.2812C16.8838 18.2812 17.7316 17.9307 18.3573 17.3065L22.6667 12.9998V19.9998C22.6667 20.5303 22.456 21.039 22.0809 21.4141C21.7058 21.7891 21.1971 21.9998 20.6667 21.9998Z" fill="#231E1B"/>
</g>
<defs>
<clipPath id="clip0_990_1708">
<rect width="16" height="16" fill="white" transform="translate(8 8)"/>
</clipPath>
</defs>
</svg>
