<svg width="32" height="32" viewBox="0 0 32 32" fill="none" xmlns="http://www.w3.org/2000/svg">
<rect width="32" height="32" rx="5" fill="#25D366"/>
<g clip-path="url(#clip0_990_1713)">
<path d="M17.9867 12.6819V10.0153C17.9867 9.83846 18.0569 9.66889 18.182 9.54387C18.307 9.41884 18.4766 9.34861 18.6534 9.34861C18.8302 9.34861 18.9998 9.41884 19.1248 9.54387C19.2498 9.66889 19.32 9.83846 19.32 10.0153V11.7559C19.74 11.3333 22.454 8.60527 22.8487 8.21061C22.9102 8.14693 22.9838 8.09614 23.0651 8.0612C23.1464 8.02627 23.2339 8.00787 23.3224 8.00711C23.411 8.00634 23.4987 8.0232 23.5807 8.05672C23.6626 8.09025 23.737 8.13975 23.7996 8.20234C23.8622 8.26494 23.9117 8.33937 23.9453 8.4213C23.9788 8.50323 23.9956 8.59102 23.9949 8.67954C23.9941 8.76806 23.9757 8.85554 23.9408 8.93688C23.9058 9.01821 23.855 9.09177 23.7914 9.15327C23.3967 9.54794 20.6967 12.2633 20.2794 12.6819H21.9867C22.1635 12.6819 22.3331 12.7522 22.4581 12.8772C22.5831 13.0022 22.6534 13.1718 22.6534 13.3486C22.6534 13.5254 22.5831 13.695 22.4581 13.82C22.3331 13.945 22.1635 14.0153 21.9867 14.0153H19.32C18.9664 14.0153 18.6273 13.8748 18.3772 13.6247C18.1272 13.3747 17.9867 13.0356 17.9867 12.6819ZM23.3834 19.1746C23.7697 19.562 23.9867 20.0868 23.9867 20.6339C23.9867 21.1811 23.7697 21.7059 23.3834 22.0933L22.7754 22.7933C17.3147 28.0186 4.02937 14.7373 9.17537 9.25994L9.94204 8.59327C10.3298 8.21764 10.8499 8.00976 11.3897 8.01463C11.9296 8.0195 12.4458 8.23671 12.8267 8.61927C12.8474 8.63927 14.082 10.2446 14.082 10.2446C14.4473 10.6303 14.6506 11.1415 14.6498 11.6727C14.6491 12.204 14.4444 12.7146 14.078 13.0993L13.306 14.0699C13.7334 15.108 14.3615 16.0513 15.1545 16.8459C15.9474 17.6404 16.8896 18.2705 17.9267 18.6999L18.9034 17.9233C19.2873 17.5559 19.7979 17.3506 20.3292 17.3498C20.8606 17.3491 21.3718 17.553 21.7567 17.9193C21.7567 17.9193 23.3627 19.1546 23.3834 19.1746V19.1746ZM22.4667 20.1439C22.4667 20.1439 20.8714 18.9159 20.8507 18.8959C20.7134 18.7598 20.5278 18.6834 20.3344 18.6834C20.141 18.6834 19.9554 18.7598 19.818 18.8959C19.8 18.9133 18.4554 19.9853 18.4554 19.9853C18.3648 20.0574 18.2569 20.1047 18.1425 20.1224C18.028 20.1402 17.9109 20.1279 17.8027 20.0866C16.4583 19.5864 15.2372 18.803 14.2221 17.7896C13.207 16.7761 12.4217 15.5562 11.9194 14.2126C11.8748 14.1029 11.8603 13.9833 11.8773 13.8662C11.8943 13.749 11.9422 13.6385 12.016 13.5459C12.016 13.5459 13.088 12.2033 13.106 12.1859C13.2422 12.0486 13.3186 11.863 13.3186 11.6696C13.3186 11.4762 13.2422 11.2906 13.106 11.1533C13.086 11.1333 11.858 9.53661 11.858 9.53661C11.7186 9.41161 11.5367 9.34467 11.3495 9.3495C11.1624 9.35434 10.9841 9.43058 10.8514 9.56261L10.0847 10.2293C6.32337 14.7513 17.838 25.6273 21.8 21.8846L22.408 21.1839C22.5514 21.0524 22.6377 20.8701 22.6487 20.6759C22.6596 20.4816 22.5943 20.2908 22.4667 20.1439V20.1439Z" fill="white"/>
</g>
<defs>
<clipPath id="clip0_990_1713">
<rect width="16" height="16" fill="white" transform="translate(8 8)"/>
</clipPath>
</defs>
</svg>
